{"title":"Valahol europaban / Somewhere in Europe(1948)","uid":11020899,"size":1561856523,"categoryP":"video","categoryS":"movies","magnet":"?xt=urn:btih:58a65674ed6d0abea2cf9f39fd0a78b853806cf6&amp;dn=Valahol+europaban+%2F+Somewhere+in+Europe%281948%29&amp;tr=udp%3A%2F%2Ftracker.openbittorrent.com%3A80&amp;tr=udp%3A%2F%2Fopen.demonii.com%3A1337&amp;tr=udp%3A%2F%2Ftracker.coppersurfer.tk%3A6969&amp;tr=udp%3A%2F%2Fexodus.desync.com%3A6969","seeders":2,"leechers":0,"uploader":"app1985","files":-1,"time":1410566948,"description":"DVDRip , audio: Hungarian ,  BT from : r u t r a c k e r\n\n\n &lt;a href=&quot;\nhttp://www.imdb.com/title/tt0039949/&quot; rel=&quot;nofollow&quot; target=&quot;_NEW&quot;&gt;\nhttp://www.imdb.com/title/tt0039949/&lt;/a&gt;\n\n\n\nscreens:\n &lt;a href=&quot;\nhttp://bayimg.com/hAAAbAagG&quot; rel=&quot;nofollow&quot; target=&quot;_NEW&quot;&gt;\nhttp://bayimg.com/hAAAbAagG&lt;/a&gt;\n &lt;a href=&quot;\nhttp://bayimg.com/haAADaAgG&quot; rel=&quot;nofollow&quot; target=&quot;_NEW&quot;&gt;\nhttp://bayimg.com/haAADaAgG&lt;/a&gt;\n &lt;a href=&quot;\nhttp://bayimg.com/HAAAAAAgg&quot; rel=&quot;nofollow&quot; target=&quot;_NEW&quot;&gt;\nhttp://bayimg.com/HAAAAAAgg&lt;/a&gt;\n\n\n\n\nGeneral\nComplete name                  : Valahol europaban (1948).avi\nFormat                         : AVI\nFormat/Info                    : Audio Video Interleave\nFile size                      : 1.45 GiB\nDuration                       : 1h 39mn\nOverall bit rate               : 2 089 Kbps\nWriting application            : VirtualDubMod 1.5.10.2 (build 2540/release)\nWriting library                : VirtualDubMod build 2540/release\n\nVideo\nID                             : 0\nFormat                         : MPEG-4 Visual\nFormat profile                 : Advanced Simple@L5\nFormat settings, BVOP          : Yes\nFormat settings, QPel          : No\nFormat settings, GMC           : No warppoints\nFormat settings, Matrix        : Default (MPEG)\nCodec ID                       : XVID\nCodec ID/Hint                  : XviD\nDuration                       : 1h 39mn\nBit rate                       : 1 951 Kbps\nWidth                          : 672 pixels\nHeight                         : 512 pixels\nDisplay aspect ratio           : 4:3\nFrame rate                     : 25.000 fps\nColor space                    : YUV\nChroma subsampling             : 4:2:0\nBit depth                      : 8 bits\nScan type                      : Progressive\nCompression mode               : Lossy\nBits/(Pixel*Frame)             : 0.227\nStream size                    : 1.36 GiB (93%)\nWriting library                : XviD 64\n\nAudio\nID                             : 1\nFormat                         : MPEG Audio\nFormat version                 : Version 1\nFormat profile                 : Layer 3\nMode                           : Joint stereo\nCodec ID                       : 55\nCodec ID/Hint                  : MP3\nDuration                       : 1h 39mn\nBit rate mode                  : Constant\nBit rate                       : 128 Kbps\nChannel(s)                     : 2 channels\nSampling rate                  : 48.0 KHz\nCompression mode               : Lossy\nDelay relative to video        : 336ms\nStream size                    : 91.3 MiB (6%)\nAlignment                      : Aligned on interleaves\nInterleave, duration           : 40 ms (1.00 video frame)\nInterleave, preload duration   : 504 ms\n\n","torrent":{"xt":"urn:btih:58a65674ed6d0abea2cf9f39fd0a78b853806cf6","amp;dn":"Valahol+europaban+%2F+Somewhere+in+Europe%281948%29","amp;tr":["udp%3A%2F%2Ftracker.openbittorrent.com%3A80","udp%3A%2F%2Fopen.demonii.com%3A1337","udp%3A%2F%2Ftracker.coppersurfer.tk%3A6969","udp%3A%2F%2Fexodus.desync.com%3A6969"],"infoHash":"58a65674ed6d0abea2cf9f39fd0a78b853806cf6","infoHashBuffer":{"type":"Buffer","data":[88,166,86,116,237,109,10,190,162,207,159,57,253,10,120,184,83,128,108,246]},"announce":[],"urlList":[]}}